<!DOCTYPE svg PUBLIC "-//W3C//DTD SVG 1.1//EN" "http://www.w3.org/Graphics/SVG/1.1/DTD/svg11.dtd">
<!-- Uploaded to: SVG Repo, www.svgrepo.com, Transformed by: SVG Repo Mixer Tools -->
<svg width="800px" height="800px" viewBox="0 0 16 16" xmlns="http://www.w3.org/2000/svg" fill="#0959d9" class="bi bi-rulers">
<g id="SVGRepo_bgCarrier" stroke-width="0"/>
<g id="SVGRepo_tracerCarrier" stroke-linecap="round" stroke-linejoin="round"/>
<g id="SVGRepo_iconCarrier"> <path d="M1 0a1 1 0 0 0-1 1v14a1 1 0 0 0 1 1h5v-1H2v-1h4v-1H4v-1h2v-1H2v-1h4V9H4V8h2V7H2V6h4V2h1v4h1V4h1v2h1V2h1v4h1V4h1v2h1V2h1v4h1V1a1 1 0 0 0-1-1H1z"/> </g>
</svg>